<?xml version="1.0" standalone="no"?>
<!DOCTYPE svg PUBLIC "-//W3C//DTD SVG 20010904//EN"
 "http://www.w3.org/TR/2001/REC-SVG-20010904/DTD/svg10.dtd">
<svg version="1.0" xmlns="http://www.w3.org/2000/svg"
 width="500.000000pt" height="500.000000pt" viewBox="0 0 500.000000 500.000000"
 preserveAspectRatio="xMidYMid meet">

<g transform="translate(0.000000,500.000000) scale(0.100000,-0.100000)"
fill="#000000" stroke="none">
<path d="M1265 3190 c3 -5 13 -10 21 -10 11 0 14 -25 14 -140 0 -133 -1 -140
-20 -140 -11 0 -20 -4 -20 -10 0 -6 32 -10 75 -10 43 0 75 4 75 10 0 6 -9 10
-20 10 -19 0 -20 7 -20 140 0 115 3 140 14 140 8 0 18 5 21 10 4 6 -22 10 -70
10 -48 0 -74 -4 -70 -10z"/>
<path d="M1795 3154 c-4 -24 -13 -38 -26 -41 -22 -6 -26 -23 -4 -23 12 0 15
-16 15 -88 0 -73 3 -92 18 -105 22 -20 70 -22 95 -3 23 18 22 29 -3 21 -38
-12 -50 11 -50 96 l0 79 30 0 c20 0 30 5 30 15 0 10 -10 15 -30 15 -28 0 -30
3 -30 35 0 28 -4 35 -19 35 -14 0 -21 -10 -26 -36z"/>
<path d="M1483 3108 c-34 -11 -45 -28 -18 -28 12 0 15 -17 15 -90 0 -73 -3
-90 -15 -90 -8 0 -15 -4 -15 -10 0 -6 27 -10 60 -10 33 0 60 4 60 10 0 6 -7
10 -15 10 -12 0 -15 15 -15 78 0 86 14 112 59 112 29 0 41 -34 41 -117 0 -56
-3 -66 -20 -70 -40 -11 -18 -23 40 -23 57 0 78 11 45 24 -12 4 -15 25 -15 95
0 68 -4 93 -16 105 -22 22 -76 20 -108 -5 l-26 -20 0 20 c0 23 -9 24 -57 9z"/>
<path d="M1981 3094 c-48 -40 -59 -120 -23 -170 47 -67 176 -54 208 21 18 44
18 69 -2 111 -32 67 -126 86 -183 38z m109 -4 c16 -16 20 -33 20 -90 0 -57 -4
-74 -20 -90 -46 -46 -90 -2 -90 90 0 92 44 136 90 90z"/>
<path d="M2250 3075 c0 -4 19 -15 43 -25 53 -25 163 -26 319 -4 187 26 216 15
278 -109 52 -102 54 -104 103 -119 63 -19 98 -62 140 -173 38 -99 38 -114 0
-115 -6 0 -15 -5 -19 -12 -5 -8 4 -9 34 -4 34 5 42 3 42 -9 0 -9 -13 -24 -30
-33 -30 -17 -39 -32 -19 -32 6 0 23 9 39 20 15 11 30 17 34 13 14 -15 3 -38
-35 -75 -23 -22 -39 -42 -36 -44 8 -8 65 36 82 63 l15 23 46 -35 c25 -19 56
-38 69 -41 18 -4 25 -16 33 -52 l10 -47 1 43 c1 40 2 42 32 42 25 0 33 -6 47
-37 14 -33 17 -35 20 -16 2 12 -1 31 -7 41 -9 17 -5 22 34 37 27 10 61 35 85
62 l41 46 29 -22 c23 -17 30 -18 30 -7 0 8 -14 23 -30 33 -18 10 -28 23 -25
31 3 8 5 20 5 28 0 9 11 14 32 14 34 0 29 15 -7 22 -30 5 -28 62 3 66 32 5 27
22 -7 22 -21 0 -30 6 -34 22 -8 28 -1 38 24 38 11 0 17 5 14 10 -3 6 -17 7
-30 4 -18 -4 -26 0 -35 16 -13 24 -1 40 28 40 7 0 11 4 7 10 -4 6 -15 6 -31
-1 -22 -8 -29 -5 -46 16 -11 15 -37 33 -58 41 -39 16 -60 47 -60 91 0 21 4 24
21 20 13 -4 32 2 49 15 33 24 63 21 68 -7 3 -11 23 -42 46 -70 117 -139 159
-232 160 -355 1 -76 -2 -92 -32 -154 -88 -187 -333 -318 -567 -303 -103 6
-144 24 -209 92 -45 46 -59 55 -89 55 -42 0 -52 -18 -37 -70 15 -54 13 -110
-5 -110 -8 0 -15 3 -15 8 0 4 -7 16 -16 27 -12 17 -30 21 -112 25 -94 5 -101
7 -171 49 -102 60 -127 62 -228 12 -46 -22 -83 -45 -83 -51 0 -13 -5 -15 85
30 44 22 90 40 102 40 13 0 66 -22 118 -50 92 -48 98 -50 179 -50 83 0 85 -1
106 -30 56 -78 89 2 54 128 -6 19 -3 22 23 22 22 0 42 -13 83 -55 75 -76 116
-90 260 -89 98 0 126 4 195 28 261 90 416 298 377 509 -15 82 -79 207 -143
282 -29 33 -58 75 -66 93 -15 37 -44 42 -82 16 -13 -10 -38 -17 -55 -18 -29
-1 -31 -4 -34 -42 -2 -33 2 -48 23 -73 15 -17 33 -31 40 -31 25 0 66 -43 96
-101 62 -124 58 -223 -12 -302 -85 -98 -208 -101 -311 -9 -52 47 -86 107 -133
231 -32 86 -81 145 -133 162 -52 17 -59 24 -98 105 -38 81 -87 130 -139 140
-19 3 -88 -1 -153 -10 -150 -20 -271 -21 -319 -1 -37 16 -53 19 -53 10z"/>
<path d="M2385 2953 c-109 -44 -251 -147 -280 -204 -27 -51 -19 -112 24 -193
37 -70 38 -75 33 -148 l-4 -76 42 -46 c55 -59 90 -67 162 -33 96 43 157 113
194 220 10 29 27 53 47 67 38 26 90 95 85 112 -3 7 -19 -9 -37 -35 -28 -41
-57 -67 -75 -67 -8 0 6 32 30 67 25 37 38 110 29 153 -10 47 -23 35 -17 -15 3
-30 -1 -61 -13 -93 l-19 -47 -16 65 c-26 110 -80 160 -170 160 -44 0 -165 -37
-231 -71 -36 -18 -39 -18 -28 -2 34 54 250 183 306 183 17 0 55 -11 84 -24 55
-26 89 -26 142 1 48 24 29 31 -27 11 l-54 -20 -57 26 c-66 30 -94 31 -150 9z
m92 -153 c18 -10 42 -39 55 -62 32 -60 32 -197 -1 -280 -29 -75 -98 -150 -166
-182 -66 -32 -83 -32 -125 -3 -53 36 -70 77 -63 157 5 64 4 72 -30 132 -32 57
-43 96 -39 139 2 16 146 89 212 108 59 16 122 13 157 -9z"/>
<path d="M1679 2822 c-65 -70 -130 -173 -129 -204 1 -7 7 1 14 17 7 17 44 71
80 119 66 86 85 123 35 68z"/>
<path d="M1780 2742 c-62 -63 -135 -170 -124 -181 3 -3 11 2 18 13 31 50 138
186 162 205 15 11 21 21 13 21 -7 0 -38 -26 -69 -58z"/>
<path d="M1782 2591 c-18 -22 -32 -45 -32 -52 0 -12 41 37 61 74 16 28 4 20
-29 -22z"/>
<path d="M2895 2585 c-44 -43 -21 -105 39 -105 64 0 90 70 40 109 -34 27 -50
26 -79 -4z"/>
<path d="M1891 2564 c-23 -29 -36 -63 -27 -71 3 -4 6 1 6 10 0 8 15 32 34 51
18 20 28 36 20 36 -7 0 -22 -12 -33 -26z"/>
<path d="M1682 2418 c4 -30 43 -33 43 -3 0 13 -8 21 -23 23 -20 3 -23 0 -20
-20z"/>
<path d="M1785 2420 c-17 -7 -17 -9 -2 -9 15 -1 17 -14 17 -121 0 -73 -4 -120
-10 -120 -5 0 -10 -4 -10 -10 0 -5 20 -10 45 -10 25 0 45 5 45 10 0 6 -4 10
-10 10 -6 0 -10 50 -10 130 0 128 0 130 -22 129 -13 0 -32 -4 -43 -9z"/>
<path d="M2025 2420 c-17 -7 -17 -9 -2 -9 13 -1 17 -10 17 -41 0 -45 0 -44
-33 -29 -38 17 -83 -11 -98 -61 -25 -82 31 -149 101 -123 17 6 30 7 30 2 0 -5
17 -9 37 -9 29 0 34 3 25 12 -8 8 -12 54 -12 140 0 126 0 128 -22 127 -13 0
-32 -4 -43 -9z m13 -172 c3 -65 2 -68 -23 -74 -38 -9 -60 16 -60 70 0 52 19
78 54 74 25 -3 26 -6 29 -70z"/>
<path d="M1258 2401 c7 -4 30 -61 50 -125 20 -65 41 -118 46 -119 5 -1 24 41
43 93 19 52 36 96 38 98 3 3 9 -13 56 -140 11 -32 24 -58 27 -58 4 0 23 51 41
113 22 71 42 118 55 129 21 17 20 18 -23 18 -41 0 -43 -1 -26 -14 18 -13 18
-15 0 -77 -28 -99 -30 -99 -59 -13 -25 74 -25 80 -9 92 14 10 7 12 -43 11 -32
-1 -51 -3 -41 -6 9 -2 17 -10 17 -16 0 -23 -47 -138 -55 -138 -5 0 -19 32 -31
71 l-22 71 21 9 c16 6 6 9 -38 9 -36 0 -55 -3 -47 -8z"/>
<path d="M1685 2333 c-28 -7 -43 -23 -22 -23 14 0 17 -11 17 -70 0 -40 -4 -70
-10 -70 -5 0 -10 -4 -10 -10 0 -5 20 -10 45 -10 25 0 45 5 45 10 0 6 -4 10
-10 10 -6 0 -10 35 -10 85 0 88 0 89 -45 78z"/>
</g>
</svg>
